<svg xmlns="http://www.w3.org/2000/svg" width="900" height="900"><defs><radialGradient id="g"><stop offset="0" stop-color="#fff3c4"/><stop offset="1" stop-color="#d4af37" stop-opacity="0"/></radialGradient></defs><path d="M829.7 634.7 Q830.7800000000001 639.62 835.7 640.7 Q830.7800000000001 641.7800000000001 829.7 646.7 Q828.62 641.7800000000001 823.7 640.7 Q828.62 639.62 829.7 634.7Z" fill="#f8e7a8" opacity="0.4"/><circle cx="829.7" cy="640.7" r="5.4" fill="url(#g)" opacity="0.24"/><path d="M688.1 17.2 Q688.82 20.48 692.1 21.2 Q688.82 21.919999999999998 688.1 25.2 Q687.38 21.919999999999998 684.1 21.2 Q687.38 20.48 688.1 17.2Z" fill="#f8e7a8" opacity="0.48"/><circle cx="688.1" cy="21.2" r="3.6" fill="url(#g)" opacity="0.288"/><path d="M811.1 570.1 Q812.0 574.2 816.1 575.1 Q812.0 576.0 811.1 580.1 Q810.2 576.0 806.1 575.1 Q810.2 574.2 811.1 570.1Z" fill="#f8e7a8" opacity="0.88"/><circle cx="811.1" cy="575.1" r="4.5" fill="url(#g)" opacity="0.528"/><path d="M558.8 468.3 Q559.88 473.22 564.8 474.3 Q559.88 475.38 558.8 480.3 Q557.7199999999999 475.38 552.8 474.3 Q557.7199999999999 473.22 558.8 468.3Z" fill="#f8e7a8" opacity="0.73"/><circle cx="558.8" cy="474.3" r="5.4" fill="url(#g)" opacity="0.438"/><path d="M116.4 72.5 Q117.84 79.06 124.4 80.5 Q117.84 81.94 116.4 88.5 Q114.96000000000001 81.94 108.4 80.5 Q114.96000000000001 79.06 116.4 72.5Z" fill="#f8e7a8" opacity="0.87"/><circle cx="116.4" cy="80.5" r="7.2" fill="url(#g)" opacity="0.522"/><path d="M184.9 236.4 Q186.34 242.96 192.9 244.4 Q186.34 245.84 184.9 252.4 Q183.46 245.84 176.9 244.4 Q183.46 242.96 184.9 236.4Z" fill="#f8e7a8" opacity="0.35"/><circle cx="184.9" cy="244.4" r="7.2" fill="url(#g)" opacity="0.21"/><path d="M482.2 871.9 Q483.09999999999997 876.0 487.2 876.9 Q483.09999999999997 877.8 482.2 881.9 Q481.3 877.8 477.2 876.9 Q481.3 876.0 482.2 871.9Z" fill="#f8e7a8" opacity="0.88"/><circle cx="482.2" cy="876.9" r="4.5" fill="url(#g)" opacity="0.528"/><path d="M574.3 774.0 Q575.38 778.92 580.3 780.0 Q575.38 781.08 574.3 786.0 Q573.2199999999999 781.08 568.3 780.0 Q573.2199999999999 778.92 574.3 774.0Z" fill="#f8e7a8" opacity="0.64"/><circle cx="574.3" cy="780.0" r="5.4" fill="url(#g)" opacity="0.384"/><path d="M490.4 39.2 Q491.47999999999996 44.120000000000005 496.4 45.2 Q491.47999999999996 46.28 490.4 51.2 Q489.32 46.28 484.4 45.2 Q489.32 44.120000000000005 490.4 39.2Z" fill="#f8e7a8" opacity="0.74"/><circle cx="490.4" cy="45.2" r="5.4" fill="url(#g)" opacity="0.444"/><path d="M284.4 32.7 Q285.47999999999996 37.620000000000005 290.4 38.7 Q285.47999999999996 39.78 284.4 44.7 Q283.32 39.78 278.4 38.7 Q283.32 37.620000000000005 284.4 32.7Z" fill="#f8e7a8" opacity="0.84"/><circle cx="284.4" cy="38.7" r="5.4" fill="url(#g)" opacity="0.504"/><path d="M576.6 85.7 Q577.32 88.98 580.6 89.7 Q577.32 90.42 576.6 93.7 Q575.88 90.42 572.6 89.7 Q575.88 88.98 576.6 85.7Z" fill="#f8e7a8" opacity="0.72"/><circle cx="576.6" cy="89.7" r="3.6" fill="url(#g)" opacity="0.432"/><path d="M815.6 212.0 Q816.14 214.46 818.6 215.0 Q816.14 215.54 815.6 218.0 Q815.0600000000001 215.54 812.6 215.0 Q815.0600000000001 214.46 815.6 212.0Z" fill="#f8e7a8" opacity="0.73"/><circle cx="815.6" cy="215.0" r="2.7" fill="url(#g)" opacity="0.438"/><path d="M637.8 325.6 Q638.88 330.52000000000004 643.8 331.6 Q638.88 332.68 637.8 337.6 Q636.7199999999999 332.68 631.8 331.6 Q636.7199999999999 330.52000000000004 637.8 325.6Z" fill="#f8e7a8" opacity="0.46"/><circle cx="637.8" cy="331.6" r="5.4" fill="url(#g)" opacity="0.276"/><path d="M705.5 647.7 Q706.94 654.26 713.5 655.7 Q706.94 657.1400000000001 705.5 663.7 Q704.06 657.1400000000001 697.5 655.7 Q704.06 654.26 705.5 647.7Z" fill="#f8e7a8" opacity="0.39"/><circle cx="705.5" cy="655.7" r="7.2" fill="url(#g)" opacity="0.23399999999999999"/><path d="M446.3 188.4 Q447.02000000000004 191.68 450.3 192.4 Q447.02000000000004 193.12 446.3 196.4 Q445.58 193.12 442.3 192.4 Q445.58 191.68 446.3 188.4Z" fill="#f8e7a8" opacity="0.48"/><circle cx="446.3" cy="192.4" r="3.6" fill="url(#g)" opacity="0.288"/><path d="M210.4 669.0 Q211.3 673.1 215.4 674.0 Q211.3 674.9 210.4 679.0 Q209.5 674.9 205.4 674.0 Q209.5 673.1 210.4 669.0Z" fill="#f8e7a8" opacity="0.41"/><circle cx="210.4" cy="674.0" r="4.5" fill="url(#g)" opacity="0.24599999999999997"/></svg>